<svg id="eJraSUy68AZ1" xmlns="http://www.w3.org/2000/svg" xmlns:xlink="http://www.w3.org/1999/xlink" viewBox="0 0 20140 3040" shape-rendering="geometricPrecision" text-rendering="geometricPrecision"><g id="eJraSUy68AZ2" clip-rule="evenodd"><path id="eJraSUy68AZ3" d="M11541.74,625.2L11207.64,679.34L11095.95,1087.95C11095.97,1087.57,11095.98,1087.18,11096,1086.8C11107.08,865.1,10977.76,639.7,10726.5,639.7L10519.58,639.7L10519.58,1533.9L10666.34,1533.9L10401.7,2005.17L9913.6,2315.28L9913.6,177.83L10767.14,177.83C11087.48,177.83,11380.31,359.08,11541.74,625.2ZM1488.96,2029.03L1525.91,1567.15L805.39,1567.15L805.39,639.7L1673.71,639.7L1636.76,177.83L199.41,177.83L199.41,2886.27L1636.76,2886.27L1673.71,2424.39L805.39,2424.39L805.39,2029.03L1488.96,2029.03ZM4045.91,2886.27L3602.51,1792.55C3813.13,1618.88,3949.84,1363.93,3949.84,1086.8C3949.84,591.67,3528.61,177.83,3044.56,177.83L2191.02,177.83L2191.02,2886.27L2797,2886.27L2797,1995.77L3033.48,1995.77L3391.89,2886.27L4045.91,2886.27ZM2797,639.7L3003.92,639.7C3255.18,639.7,3384.5,865.1,3373.42,1086.8C3362.33,1341.76,3236.7,1533.9,3003.92,1533.9L2797,1533.9L2797,639.7ZM6373.77,2886.27L5930.37,1792.55C6140.99,1618.88,6277.7,1363.93,6277.7,1086.8C6277.7,591.67,5856.47,177.83,5372.42,177.83L4518.88,177.83L4518.88,2886.27L5124.86,2886.27L5124.86,1995.77L5361.34,1995.77L5719.75,2886.27L6373.77,2886.27ZM5124.86,639.7L5331.78,639.7C5583.04,639.7,5712.36,865.1,5701.28,1086.8C5690.19,1341.76,5564.56,1533.9,5331.78,1533.9L5124.86,1533.9L5124.86,639.7ZM8047.61,140.88C7293.83,140.88,6661.99,787.5,6661.99,1526.51C6661.99,2306.15,7319.7,2912.14,8047.61,2912.14C8801.4,2893.66,9433.24,2283.98,9433.24,1526.51C9433.24,772.72,8786.62,140.88,8047.61,140.88ZM8047.61,2424.39C7582.04,2394.83,7293.83,1962.52,7293.83,1526.51C7293.83,1068.33,7604.21,628.62,8047.61,628.62C8513.19,628.62,8801.4,1108.97,8801.4,1526.51C8801.4,1995.77,8476.24,2424.39,8047.61,2424.39Z" transform="matrix(1 0 0 1 175.566626 0)" clip-rule="evenodd" fill="rgb(0,0,0)" fill-rule="evenodd" stroke="none" stroke-width="1"/><path id="eJraSUy68AZ4" d="M11546.79,625.2L11204.3,670.92L11101,1087.95C11089.58,1342.34,10963.96,1533.9,10731.55,1533.9L10671.39,1533.9L10405.75,2002.79L9918.65,2315.28L9918.65,2886.27L10524.63,2886.27L10524.63,1995.77L10761.11,1995.77L11119.52,2886.27L11773.54,2886.27L11330.14,1792.55C11540.76,1618.88,11677.47,1363.93,11677.47,1086.8C11677.47,919.35,11629.29,761.19,11546.79,625.2ZM15139.7,1896.01L15014.06,1896.01L15014.06,1253.08L14408.08,1253.08L14408.08,1896.01L13986.85,1896.01L14681.51,177.83L14142.04,177.83L13262.63,2357.88L14408.08,2357.88L14408.08,2886.27L15014.06,2886.27L15014.06,2357.88L15102.75,2357.88L15139.7,1896.01ZM16706.38,163.05C15978.31,172.48,15509.2,865.1,15509.2,1537.59C15509.2,2239.64,16019.63,2940.6,16706.38,2912.14C17446.31,2881.48,17903.57,2213.78,17903.57,1537.59C17903.57,839.23,17400.97,154.05,16706.38,163.05ZM16706.38,2457.65C16274.07,2457.65,16115.18,1873.84,16115.18,1537.59C16115.18,1160.7,16307.32,617.53,16706.38,617.53C17131.31,617.53,17297.59,1212.43,17297.59,1537.59C17297.59,1877.53,17116.53,2457.65,16706.38,2457.65ZM19928.44,1896.01L19802.8,1896.01L19802.8,1253.08L19196.82,1253.08L19196.82,1896.01L18775.59,1896.01L19470.25,177.83L18930.78,177.83L18051.37,2357.88L19196.82,2357.88L19196.82,2886.27L19802.8,2886.27L19802.8,2357.88L19891.49,2357.88L19928.44,1896.01Z" transform="matrix(1 0 0 1 151.35 -22.089833)" clip-rule="evenodd" fill="rgb(0,0,0)" fill-rule="evenodd" stroke="none" stroke-width="1"/></g><script><![CDATA[(function(s,i,u,o,w,d,t,n,x,e,p){w[o]=w[o]||{};w[o][s]=w[o][s]||[];w[o][s].push(i);e=d.createElementNS(n,t);e.async=true;e.setAttributeNS(x,'href',[u,s,'.','j','s'].join(''));e.setAttributeNS(null,'src',[u,s,'.','j','s'].join(''));p=d.getElementsByTagName(t)[0];p.parentNode.insertBefore(e,p);})('5c7f360c',{"root":"eJraSUy68AZ1","animations":[{"elements":{"eJraSUy68AZ3":{"transform":{"data":{"t":{"x":-5870.575073,"y":-1526.510071}},"keys":{"o":[{"t":0,"v":{"x":6046.141699,"y":1526.510071,"type":"corner"}},{"t":100,"v":{"x":5920.736966,"y":1526.510071,"type":"corner"}},{"t":200,"v":{"x":6121.384537,"y":1520.000071,"type":"corner"}},{"t":300,"v":{"x":6221.708323,"y":1520.000071,"type":"corner"}},{"t":400,"v":{"x":6221.708323,"y":1654.370071,"type":"corner"}},{"t":500,"v":{"x":6221.708323,"y":1520.000071,"type":"corner"}},{"t":600,"v":{"x":6010.471019,"y":1654.370071,"type":"corner"}},{"t":700,"v":{"x":6112.118521,"y":1432.316759,"type":"corner"}},{"t":800,"v":{"x":5955.850291,"y":1401.1923,"type":"corner"}},{"t":900,"v":{"x":6121.384537,"y":1654.370071,"type":"corner"}},{"t":1000,"v":{"x":5895.656019,"y":1520.000071,"type":"corner"}},{"t":1100,"v":{"x":5995.979805,"y":1520.000071,"type":"corner"}},{"t":1200,"v":{"x":5995.979805,"y":1654.370071,"type":"corner"}},{"t":1300,"v":{"x":5945.817912,"y":1385.630071,"type":"corner"}},{"t":1400,"v":{"x":5945.817912,"y":1654.370071,"type":"corner"}},{"t":1500,"v":{"x":6021.060751,"y":1530.626218,"type":"corner"},"e":[0.445,0.05,0.55,0.95]},{"t":2000,"v":{"x":5671.165073,"y":1654.370071,"type":"corner"},"e":[0.445,0.05,0.55,0.95]},{"t":3000,"v":{"x":5671.165073,"y":1385.630071,"type":"corner"},"e":[0.445,0.05,0.55,0.95]}]}}},"eJraSUy68AZ4":{"transform":{"data":{"t":{"x":-14923.545898,"y":-1537.970337}},"keys":{"o":[{"t":0,"v":{"x":15074.895898,"y":1515.880504,"type":"corner"}},{"t":100,"v":{"x":15074.895898,"y":1375.000504,"type":"corner"}},{"t":200,"v":{"x":15074.895898,"y":1537.132798,"type":"corner"}},{"t":300,"v":{"x":15135.105898,"y":1664.992798,"type":"corner"}},{"t":400,"v":{"x":15360.834416,"y":1375.000504,"type":"corner"}},{"t":500,"v":{"x":15135.105898,"y":1530.622798,"type":"corner"}},{"t":600,"v":{"x":15250.462523,"y":1432.313339,"type":"corner"}},{"t":700,"v":{"x":15074.895898,"y":1406.124962,"type":"corner"}},{"t":800,"v":{"x":14834.134541,"y":1390.562733,"type":"corner"}},{"t":900,"v":{"x":15135.105898,"y":1375.000504,"type":"corner"}},{"t":1000,"v":{"x":14834.134541,"y":1530.622798,"type":"corner"}},{"t":1100,"v":{"x":14733.810756,"y":1530.622798,"type":"corner"}},{"t":1200,"v":{"x":15135.105898,"y":1509.370504,"type":"corner"}},{"t":1300,"v":{"x":14859.215487,"y":1509.370504,"type":"corner"}},{"t":1400,"v":{"x":15135.105898,"y":1519.996651,"type":"corner"}},{"t":1500,"v":{"x":15074.895898,"y":1519.996651,"type":"corner"},"e":[0.42,0,1,1]},{"t":2000,"v":{"x":15135.105898,"y":1396.252798,"type":"corner"},"e":[0.445,0.05,0.55,0.95]},{"t":3000,"v":{"x":15135.105898,"y":1664.992798,"type":"corner"},"e":[0.445,0.05,0.55,0.95]}]}}}},"s":"MXDA1Mjg4MmY3MTgyUjDdmNmU4MTc2N2M3YkUTyZjQ3NDAzZDNkM2QzSOTJmNzE3NjdmNzI3MQDgxNzZIN2M3YjJmNDKczZTM5MmZYNzY4MTcDyN2Y2ZVc4MTc2N2M3NYjgwMmY0NzNlMzkyZYjczNzZINzk3OTJmNDFczZVQzOTJmNmU3OTgAxNzI3ZjdiNmU4MTcyCMmY0NzgxN2Y4MjcyMWzkyZjgwN2Q3MjcyNzVEyZjQ3M2U4YQ|"}],"options":"MKDAxMDg4MmY4MDgxNmCU3ZjgxMmY0NzJmNzkT3YzZlNzEyZjhh"},'https://cdn.svgator.com/ply/','__SVGATOR_PLAYER__',window,document,'script','http://www.w3.org/2000/svg','http://www.w3.org/1999/xlink')]]></script></svg>